<?xml version="1.0" encoding="utf-8"?>
<!-- Generator: Adobe Illustrator 17.1.0, SVG Export Plug-In . SVG Version: 6.00 Build 0)  -->
<!DOCTYPE svg PUBLIC "-//W3C//DTD SVG 1.1//EN" "http://www.w3.org/Graphics/SVG/1.1/DTD/svg11.dtd">
<svg version="1.1" id="Layer_1" xmlns="http://www.w3.org/2000/svg" xmlns:xlink="http://www.w3.org/1999/xlink" x="0px" y="0px"
	 viewBox="0 0 633 167.6" enable-background="new 0 0 633 167.6" xml:space="preserve">
<path fill="#FFFFFF" d="M173.5,165.9"/>
<path fill="#FFFFFF" d="M318.8,23.6c0.7-2.4-1.2-4.6-5.7-6.3c-4.5-1.8-10.3-2.7-17.4-2.6c-16.8,0-33.1,3-49,9.1l14.4,3.5
	c12,3.1,23.5,4.6,34.4,4.6c5.6,0,10.7-0.8,15.3-2.5C315.5,27.6,318.2,25.7,318.8,23.6L318.8,23.6z M194.1,87.2c1-3.3-0.4-5-4.2-5
	c-5.1,0-10.7,4-16.7,12l-1.6,2.1l2.9,0c4.8,0,9.1-0.9,12.8-2.6C191,92,193.3,89.9,194.1,87.2L194.1,87.2z M152.6,34.1
	c1.7-5.2,2.1-10.5,1.2-15.7c-18.5,2.3-38,10.8-58.4,25.7C74.9,58.9,62.1,73.6,57.2,88.2c-1.8,5.4-1.6,10.1,0.6,13.9
	c2.2,3.8,5.9,5.7,11.1,5.7c13.7,0,29.7-8.1,48.2-24.4C135.5,67.2,147.3,50.8,152.6,34.1L152.6,34.1z M321.1,23.3
	c-1.1,3.9-5.9,7.2-14.3,10c-8.4,2.7-17.9,4.1-28.6,4.1c-13.9,0-30.3-2.1-49.2-6.5c-11.3,4.7-22.6,11.9-33.8,21.5
	c-11.3,9.6-24.7,23.4-40.1,41.4c4.6,0.8,8.4,1.4,11.5,1.9c7.6-10.1,15.4-15.2,23.5-15.2c5.5,0,7.6,2.1,6.3,6.5
	c-1.1,3.5-3.8,6.3-8.2,8.4c-4.4,2.2-9.6,3.2-15.6,3.3l-2.3,0c-0.3,0.3-2,2.4-4.9,6.2c-3.4,4.5-7.4,8.4-12.1,11.6
	c-4.7,3.2-8.6,4.8-11.9,4.8c-1.1,0-1.6-0.2-1.4-0.7c0.1-0.4,0.6-0.7,1.5-0.9c5.9-1.6,13.7-8.9,23.3-21.8c-2.2-0.2-5.3-0.7-9.4-1.4
	l-2.1-0.5c-1.7,2-4.2,4.9-7.6,8.7c-10.6,12.1-18.8,20.7-24.7,25.9c-5.9,5.2-13.2,10.3-22,15.3c-23.5,13.4-45.4,20.1-65.8,20.1
	c-12,0-21-2.5-27-7.4c-6-5-7.6-11.4-4.9-19.2c1.3-3.9,3.6-7.3,6.9-10c3.3-2.8,6.5-4.2,9.8-4.2c5.2,0,6.9,2.6,5.2,7.8
	c-0.8,2.4-2.3,4.5-4.5,6.2c-2.2,1.7-4.4,2.6-6.7,2.6c-3.9,0-5.1-1.8-3.9-5.5c0.9-1.9,0.9-2.8,0.2-2.8c-1.5,0-2.9,2.1-4.3,6.2
	c-2.2,6.5-0.7,12.1,4.7,16.6c5.3,4.6,12.9,6.9,22.7,6.9c15.4,0,30.8-4.6,46-13.7c15.2-9.1,33.8-24.8,55.6-47.1
	c1.8-1.8,4.6-4.6,8.2-8.3l-2.2,0c-8.8,0-15.9,3.4-21.4,10.1c-0.7,1.1-1.3,1.6-1.8,1.6c-0.6,0-0.8-0.3-0.6-0.9c1-3.1,4.2-6.1,9.5-8.8
	c5.3-2.8,10.4-4.2,15.3-4.2l3.4,0c30.3-31,58.1-51.6,83.4-61.6c-5.6-1.3-11.3-2.7-17.1-4.3c-19-5.2-34.2-7.8-45.5-7.8
	c-2.3,0-4.5-0.1-6.5-0.3c1.2,6.5,0.6,13.8-2,21.9c-5.5,17-17.3,33.1-35.5,48.2c-18.3,15.1-35,22.7-50.3,22.7c-6.4,0-11-2-13.7-6
	c-2.7-4-2.9-9.3-0.7-15.8C60.2,74.1,72.8,59.1,93.1,44c20.2-15.1,40.2-24.7,60.2-28.7c-3-8.9-10.5-13.4-22.5-13.3
	c-19.7,0-40.9,9.9-63.5,29.5c-1.8,1.3-2.7,2-2.9,2c-0.5,0-0.7-0.3-0.7-0.8c0.5-1.4,5-5.2,13.5-11.3C97,7.1,114.7,0,130.7,0
	c14.2,0,22.8,4.9,26.1,14.7c8.8-2.1,18.7-3.2,29.5-3.2c6.8,0,13,0.5,18.4,1.6c5.4,1.1,18.3,4.2,38.7,9.5
	c19.3-6.9,36.4-10.3,51.4-10.3c8.9,0,15.7,1,20.5,3C320.2,17.3,322.1,20,321.1,23.3"/>
<path fill="#FFFFFF" d="M240,101c-0.1,0.5-2.6,2.6-7.2,6.3c-6,4.9-10.9,7.3-14.9,7.3c-4.5,0-5.9-2.5-4.3-7.6c0.5-1.6,1.5-3.7,3-6.2
	c-4.7,3.2-8.7,6.4-12,9.5c-3.3,3.1-9.4,9.5-18.1,19.2c-3.1-0.2-4.9-0.3-5.4-0.3c-0.2,0-2.1,0.1-5.6,0.4l21.8-23.1
	c10.8-11.6,16.7-18.8,17.5-21.6c0.5-1.6,0.1-2.4-1.3-2.4c-3.3,0-11.2,6.3-23.7,18.8c-0.8,0.8-1.4,1.2-1.8,1.2
	c-0.2-0.1-0.3-0.2-0.2-0.5c0.2-0.3,0.3-0.5,0.6-0.7l2.3-2.2c12.8-12,20.8-17.9,24-18c4.7,0,6.1,3,4.3,9c-1.4,4.5-5.6,10.4-12.7,17.8
	c4.1-3.5,7.9-6.3,11.4-8.5c3.8-5.2,7.9-9.5,12.3-13c4.4-3.5,7.9-5.2,10.5-5.2c1.8,0,2.5,0.8,2,2.3c-0.8,2.8-6.1,6.8-15.7,12
	c-1.5,0.8-3.8,2-6.8,3.6l-1.3,0.9c-1.6,2.7-2.7,4.9-3.3,6.6c-1.5,4.9-0.4,7.3,3.3,7.3c4.6,0,10.7-3.7,18.4-11.2
	c1.6-1.3,2.5-1.9,2.8-1.9C240,100.5,240.1,100.7,240,101"/>
<path fill="#FFFFFF" d="M281.5,86.5c0.8-2.8-0.1-4.2-2.7-4.2c-5.3,0-13.9,5.2-25.8,15.6c-11.9,10.4-18.8,18.8-20.8,25.2
	c-1.1,3.8,0,5.6,3.4,5.6c4.1,0,13.1-6.6,27-19.9C274,98,280.3,90.5,281.5,86.5L281.5,86.5z M301.8,100.9c-0.3,1.2-6.3,6.8-17.8,16.8
	c-9.4,8.2-16.1,12.3-20.2,12.3c-2.7,0-4.7-1-5.8-3c-1.1-2-1.2-4.5-0.3-7.5c0.9-3.1,2.9-6.5,5.8-10.2c-8.3,8.1-14.5,13.6-18.4,16.5
	c-4,2.8-7.4,4.3-10.4,4.3c-3.1,0-5.4-1.3-6.7-3.9c-1.3-2.6-1.4-5.9-0.1-9.9c3.4-11.1,14.3-21,32.7-29.6c8.1-3.8,14.2-5.8,18.5-5.8
	c3.6,0,4.9,1.7,3.9,5.2c-0.3,1-0.9,2.3-1.9,3.9l7-8.4c1.6,0.4,3.1,0.6,4.5,0.6c1.6,0,3.7-0.2,6.3-0.6L276,107
	c-8,8.9-12.4,14.8-13.3,17.6c-0.8,2.7-0.1,4.1,2.3,4.1c2.4,0,6.9-2.6,13.7-7.9c6.7-5.3,13.9-11.8,21.5-19.5c0.5-0.6,0.9-0.9,1.2-0.9
	C301.8,100.4,301.9,100.6,301.8,100.9"/>
<path fill="#FFFFFF" d="M372.5,100.8c-0.3,1.2-6.1,6.8-17.4,16.8c-9.3,8.2-15.9,12.3-20,12.3c-2.7,0-4.6-1-5.8-3
	c-1.2-2-1.4-4.5-0.6-7.5c0.7-2.6,1.9-5,3.7-7.2c1.7-2.2,5.7-6.6,12.1-13.2c6.6-6.9,10.2-11.4,10.7-13.3c0.7-2.4-0.3-3.6-2.8-3.5
	c-8.5,0-26.1,15.7-52.9,47.2c-2.8-0.2-4.5-0.3-5.1-0.3c-2.1,0-4,0.1-5.9,0.4l19.9-21.5c11.3-12.3,17.3-20,18.2-23
	c0.5-1.7,0-2.6-1.4-2.6c-3,0-10.6,6.3-22.9,18.8c-0.7,0.8-1.3,1.2-1.6,1.2c-0.3,0-0.4-0.2-0.4-0.5c0.1-0.3,0.3-0.5,0.6-0.7l2.3-2.2
	c12.4-12,20.1-17.9,23.2-17.9c2,0,3.4,0.9,4.3,2.7c0.9,1.8,1,3.9,0.3,6.4c-1.1,3.7-4.7,8.9-11,15.5c9.6-9.5,16.8-15.9,21.5-19.4
	c4.7-3.5,8.6-5.2,11.8-5.2c2.6,0,4.5,1,5.6,3.1c1.2,2.1,1.4,4.7,0.5,7.7c-1.1,3.9-5.4,9.8-13,17.8c-7.8,8.2-12,13.4-12.7,15.6
	c-0.7,2.4,0.2,3.6,2.6,3.6c5.3,0,16.9-9.1,34.7-27.4c0.4-0.6,0.8-0.9,1.1-0.9C372.4,100.3,372.5,100.5,372.5,100.8"/>
<path fill="#FFFFFF" d="M415.9,100.8c-0.2,0.8-5.6,5.6-16.2,14.5c-11.6,9.7-20.7,14.6-27,14.6c-4.1,0-7.2-1.5-9.3-4.6
	c-2.1-3.1-2.6-6.8-1.4-11.1c1.3-4.9,4.7-9.9,10.1-15.1c5.4-5.2,12-9.7,19.8-13.5c6.6-3.2,11.6-4.9,15.2-4.9c4.3,0,5.8,2.5,4.5,7.6
	c-1,4-3.5,7.9-7.3,11.9c-3.8,4-7.1,6-9.8,6c-2.7,0-3.7-1.3-3-3.9c0.8-3,4.3-5.9,10.5-8.4c4.8-2,7.6-4.6,8.5-7.9
	c0.7-2.6-0.4-3.9-3.3-3.9c-4.9,0-12.1,4.8-21.8,14.3c-9.7,9.5-15.5,17.5-17.2,24c-1.5,5.4,0.4,8.1,5.5,8.1c8.1,0,21.5-9,40-26.9
	c1-0.9,1.7-1.4,2-1.4C415.9,100.3,416,100.5,415.9,100.8"/>
<path fill="#FFFFFF" d="M457.4,84.4c0.5-1.9-0.3-2.8-2.4-2.8c-3.1,0-7.8,2.1-14,6.4c-6.2,4.3-12.6,9.8-19.3,16.6
	c9.1-2.2,17.1-5.2,24-9.1C452.7,91.6,456.5,87.9,457.4,84.4L457.4,84.4z M460.7,100.7c0,0.2-0.8,0.9-2.2,2.2l-5,4.7
	c-16,14.8-28.4,22.2-37.2,22.2c-4.2,0-7.3-1.5-9.3-4.4c-2-2.9-2.5-6.6-1.3-11c2.8-10.4,12.5-19.6,29.3-27.6
	c8.8-4.2,15.6-6.3,20.5-6.3c2.1,0,3.7,0.6,4.9,1.9c1.2,1.3,1.5,2.8,1.1,4.6c-1.1,4.2-4.7,7.8-11,10.7c-6.3,3-16.2,5.7-29.8,8.3
	c-5.6,6-8.9,10.9-9.9,14.9c-1.3,5,0.8,7.4,6.3,7.4c9.4,0,23.1-9,41.2-26.9c0.9-0.9,1.6-1.4,2.1-1.4
	C460.6,100.2,460.7,100.4,460.7,100.7"/>
<path fill="#FFFFFF" d="M477.9,101c0.4-1.7,0.8-3.5,1.1-5.2c0.3-1.7,0.9-4.2,1.6-7.4c0.6-2.6,1.3-4.8,2-6.5
	c-4.3,4.1-10.5,9.9-18.6,17.4c0.9,0.9,1.2,2.1,0.8,3.4c-0.9,3.4-4.3,5.8-10.3,7c-2.4,0.5-4.8,1.8-6.9,3.7c-2.2,1.9-3.5,4-4.1,6.1
	c-0.6,2.3-0.2,4.3,1.1,5.8c1.3,1.6,3.3,2.3,5.8,2.3c5,0,10.4-2.8,16.3-8.5C472.5,113.5,476.2,107.5,477.9,101L477.9,101z
	 M498.5,66.6c-0.6,2.3-5.4,6.9-14.4,13.8c-0.8,1.8-1.4,3.4-1.7,4.7c-0.8,3.4-0.6,8.7,0.8,16c0.7,3.7,0.8,6.7,0.1,9.2
	c-1.3,5.2-5,9.8-11.1,13.6c-6.1,3.8-12.8,5.8-19.9,5.8c-4,0-7-1.1-8.8-3.3c-1.8-2.2-2.3-5.2-1.3-9c1.1-4.4,3.8-8.6,8-12.7
	c4.2-4.1,8-6.2,11.3-6.2c0.6,0,1.1,0.1,1.5,0.3l9.2-8.5c2.7-2.5,6.4-6,11-10.4c2-4.1,4.4-7.5,7.2-10.5c2.8-2.9,5.1-4.4,7.1-4.4
	C498.4,65.1,498.8,65.6,498.5,66.6"/>
<path fill="#FFFFFF" d="M539.2,100.6c-0.2,0.8-5.4,5.6-15.8,14.5c-11.4,9.7-20.2,14.6-26.6,14.6c-4.1,0-7.3-1.5-9.5-4.6
	c-2.2-3.1-2.8-6.8-1.7-11.1c1.2-4.9,4.4-9.9,9.7-15.1c5.3-5.2,11.7-9.7,19.4-13.5c6.5-3.2,11.5-4.9,15.1-4.9c4.3,0,5.9,2.5,4.7,7.6
	c-0.9,4-3.2,7.9-6.9,11.9c-3.7,4-6.9,6-9.6,6c-2.7,0-3.7-1.3-3.1-3.9c0.7-3,4.1-5.9,10.3-8.4c4.7-2,7.5-4.6,8.2-7.9
	c0.6-2.6-0.5-3.9-3.4-3.9c-4.9,0-12,4.8-21.4,14.3c-9.4,9.5-15,17.5-16.5,24c-1.3,5.4,0.6,8.1,5.8,8.1c8.1,0,21.2-9,39.3-26.9
	c1-0.9,1.6-1.4,2-1.4C539.2,100.1,539.3,100.3,539.2,100.6"/>
<path fill="#FFFFFF" d="M580.2,86c0.6-2.8-0.4-4.2-3-4.2c-5.3,0-13.6,5.2-24.7,15.6c-11.2,10.4-17.5,18.8-19,25.2
	c-0.9,3.8,0.4,5.6,3.8,5.6c4.1,0,12.6-6.6,25.6-19.9C573.6,97.5,579.3,90.1,580.2,86L580.2,86z M601.5,100.5
	c-0.3,1.2-5.8,6.8-16.6,16.8c-8.8,8.2-15.3,12.3-19.3,12.3c-2.7,0-4.7-1-6-3c-1.3-2-1.6-4.5-0.9-7.5c0.7-3.1,2.4-6.5,5.1-10.2
	c-7.7,8.1-13.5,13.6-17.3,16.5c-3.8,2.8-7.1,4.3-10.1,4.3c-3.1,0-5.5-1.3-7-3.9c-1.5-2.6-1.8-5.9-0.8-9.9
	c2.6-11.1,12.8-21,30.6-29.6c7.8-3.8,13.8-5.8,18.1-5.8c3.6,0,5,1.7,4.2,5.2c-0.2,1-0.7,2.3-1.6,3.9l6.4-8.4
	c1.7,0.4,3.2,0.6,4.5,0.6c1.6,0,3.7-0.2,6.3-0.6l-21.1,25.4c-7.4,8.9-11.4,14.8-12,17.6c-0.6,2.7,0.2,4.1,2.5,4.1
	c2.4,0,6.8-2.6,13.1-7.9c6.4-5.3,13.1-11.8,20.2-19.5c0.5-0.6,0.9-0.9,1.2-0.9C601.5,100,601.6,100.1,601.5,100.5"/>
<path fill="#FFFFFF" d="M633,68c0,2.3-3.7,7-11,13.9c-0.4,1.8-0.5,3.4-0.5,4.7c0,3.4,1.6,8.7,4.7,16c1.6,3.6,2.4,6.7,2.4,9.2
	c0,5.2-2.6,9.7-7.7,13.6c-5.2,3.8-11.3,5.7-18.4,5.8c-4,0-7.2-1.1-9.6-3.3c-2.4-2.2-3.6-5.2-3.6-9c0-4.3,1.6-8.6,4.7-12.7
	c3.2-4.1,6.4-6.2,9.8-6.2c0.6,0,1.1,0.1,1.6,0.3l7.1-8.5c2.1-2.5,5-6,8.5-10.4c1-4.1,2.5-7.5,4.6-10.4c2-2.9,4.1-4.3,6.1-4.4
	C632.6,66.6,633,67,633,68z M620.9,102.4c0-1.7-0.1-3.5-0.2-5.2c-0.1-1.7-0.2-4.2-0.2-7.3c0-2.6,0.1-4.8,0.3-6.5
	c-3.3,4.1-8.1,9.9-14.3,17.4c1.1,0.9,1.7,2.1,1.7,3.4c0,3.4-2.9,5.7-8.6,7c-2.3,0.5-4.3,1.8-6,3.7c-1.7,1.9-2.5,4-2.5,6.1
	c0,2.3,0.9,4.3,2.6,5.8c1.7,1.6,3.9,2.3,6.4,2.3c5,0,9.7-2.8,14.2-8.5C618.6,115,620.9,108.9,620.9,102.4z"/>
<path fill="#FFFFFF" d="M626.9,44.9c0,3.9-2.2,8.2-6.5,12.7c-1.6,1.7-3.8,3.5-6.5,5.2c-2.7,1.7-4.6,2.6-5.7,2.6
	c-0.4,0-0.5-0.2-0.5-0.5c0-0.3,0.2-0.5,0.7-0.7c6.4-2.4,9.6-5,9.6-7.8c0-0.3-0.3-0.5-0.9-0.5c-2.7,0-4.1-1.2-4.1-3.7
	c0-2.3,1.2-4.6,3.6-7.2c2.4-2.5,4.7-3.8,6.7-3.8C625.7,41.2,626.9,42.4,626.9,44.9z"/>
<g>
	<path fill="#FFFFFF" d="M190.3,167.1h-3.2l-4.6-7.6l-4.4-0.1v7.7h-2.7v-17.9h8.6c1.1,0.1,2.4,0.1,3.5,0.7c1.3,0.7,2.4,2.1,2.4,4.4
		c0,2.4-1.3,3.7-2.1,4.2c-0.9,0.6-1.8,0.7-2.5,0.8L190.3,167.1z M178.1,157.2l4,0.1c1.7,0,2.3,0,2.9-0.3c1.4-0.4,2.1-1.5,2.1-2.7
		c0-2.2-2-2.6-2.5-2.7c-0.6-0.1-0.8-0.1-2.9-0.2h-3.7V157.2z"/>
	<path fill="#FFFFFF" d="M219.3,164.9v2.2h-12.9v-17.9c4.3-0.1,7.1-0.1,12.7-0.1v2.1c-0.8,0-4.6,0-5.5,0c-1.5,0-3,0-4.5,0.1v5.2h8.6
		v2.2h-8.6v6.2H219.3z"/>
	<path fill="#FFFFFF" d="M239.8,158.7c-1.7-0.4-5-1.2-5-5c0-2.9,2.2-5.1,6.1-5.1c4.2,0,6.9,2.6,6.9,5.9c0,0.3,0,0.5,0,0.7l-2.7-0.1
		c0-0.6,0-1.3-0.2-2c-0.6-1.8-2.4-2.5-4-2.5c-2.2,0-3.7,1.2-3.7,2.8c0,1.9,2,2.4,4.1,2.8l1.8,0.4c1.9,0.5,5.3,1.3,5.3,5.1
		c0,3.7-3.1,5.8-7.1,5.8c-2.9,0-7.4-1.3-7.4-6.2c0-0.3,0-0.5,0-0.8l2.6,0.2c0,1,0.1,2.5,1.6,3.6c0.8,0.6,1.9,1,3.4,1
		c1.7,0,4.3-0.6,4.3-3.1c0-2.2-2.3-2.7-4.1-3.1L239.8,158.7z"/>
	<path fill="#FFFFFF" d="M270.1,167.1h-2.8l0.1-15.6h-5.8v-2.4c2.4,0,4.8,0,7.2,0c2.4,0,4.7,0,7.1,0v2.4H270L270.1,167.1z"/>
	<path fill="#FFFFFF" d="M302.5,167.1h-2.9l-1.9-5.6h-6.2l-1.9,5.6h-2.9l6.6-17.9h2.7L302.5,167.1z M296.9,159.3l-2.3-6.7l-2.3,6.7
		H296.9z"/>
	<path fill="#FFFFFF" d="M331.3,149.2v9c0,2.1,0,3.9-0.4,5.3c-1.2,4-5,4.1-6.9,4.1c-3,0-5.5-1.1-6.5-3.8c-0.5-1.3-0.5-2.7-0.5-6.3
		v-8.4h2.6v8.4v1.1c0,3,0.2,3.6,0.4,4.1c0.9,2.5,3.1,2.5,4.3,2.5c0.9,0,1.8-0.1,2.5-0.5c1.7-1,1.7-2.9,1.8-3.8c0-0.9,0-1.5,0-3.1
		v-8.7H331.3z"/>
	<path fill="#FFFFFF" d="M363.5,167.1h-3.2l-4.6-7.6l-4.4-0.1v7.7h-2.7v-17.9h8.6c1.1,0.1,2.4,0.1,3.5,0.7c1.3,0.7,2.4,2.1,2.4,4.4
		c0,2.4-1.3,3.7-2.1,4.2c-0.9,0.6-1.8,0.7-2.5,0.8L363.5,167.1z M351.3,157.2l4,0.1c1.7,0,2.3,0,2.9-0.3c1.4-0.4,2.1-1.5,2.1-2.7
		c0-2.2-2-2.6-2.5-2.7c-0.6-0.1-0.8-0.1-2.9-0.2h-3.7V157.2z"/>
	<path fill="#FFFFFF" d="M393,167.1h-2.9l-1.9-5.6H382l-1.9,5.6h-2.9l6.6-17.9h2.7L393,167.1z M387.4,159.3l-2.3-6.7l-2.3,6.7H387.4
		z"/>
	<path fill="#FFFFFF" d="M422.2,167.1h-3.2l-8.7-14v14h-2.5l0.1-17.9h2.9l9,14.3l-0.1-14.3h2.5L422.2,167.1z"/>
	<path fill="#FFFFFF" d="M445.3,167.1h-2.8l0.1-15.6h-5.8v-2.4c2.4,0,4.8,0,7.2,0c2.4,0,4.7,0,7.1,0v2.4h-5.8L445.3,167.1z"/>
	<path fill="#FFFFFF" d="M501.8,158.2v8.9h-2.5v-1.9c-0.7,0.7-2.4,2.4-6.1,2.4c-6,0-8.7-4.6-8.7-9.2c0-5.3,3.5-9.8,9.2-9.8
		c2.4,0,4.8,0.9,6.4,2.8c1.3,1.5,1.6,2.9,1.8,3.8h-2.9c-0.2-0.5-0.4-1.4-1.1-2.2c-0.9-1.1-2.3-2-4.3-2c-3.5,0-6.2,2.7-6.2,7.3
		c0,4.5,2.6,7,5.9,7c1.9,0,3.6-0.8,4.7-2.1c0.9-1.1,1.1-2.1,1.2-2.8h-6.7v-2.3H501.8z"/>
	<path fill="#FFFFFF" d="M534,167.1h-3.2l-4.6-7.6l-4.4-0.1v7.7h-2.7v-17.9h8.6c1.1,0.1,2.4,0.1,3.5,0.7c1.3,0.7,2.4,2.1,2.4,4.4
		c0,2.4-1.3,3.7-2.1,4.2c-0.9,0.6-1.8,0.7-2.5,0.8L534,167.1z M521.8,157.2l4,0.1c1.7,0,2.3,0,2.9-0.3c1.4-0.4,2.1-1.5,2.1-2.7
		c0-2.2-2-2.6-2.5-2.7c-0.6-0.1-0.8-0.1-2.9-0.2h-3.7V157.2z"/>
	<path fill="#FFFFFF" d="M564.2,164.7c-2.3,2.9-5.5,3-6.8,3c-1.2,0-2.5-0.2-3.9-0.7c-4.5-1.9-5-6.8-5.1-8.7c0-4.7,2.6-9.6,8.9-9.6
		c6,0,8.9,4.5,8.9,9.5C566.3,160.6,565.6,163,564.2,164.7z M561.9,153.2c-1.2-1.6-2.9-2-4.5-2c-0.9,0-1.7,0.1-2.5,0.5
		c-0.8,0.4-1.5,0.9-2,1.5c-1.1,1.4-1.4,3.2-1.4,4.9c0,1.7,0.3,3.3,1.2,4.6c1.5,2.3,3.8,2.4,4.9,2.4c4,0,5.8-2.9,5.8-7
		C563.3,157.2,563.3,154.9,561.9,153.2z"/>
	<path fill="#FFFFFF" d="M596.5,149.2v9c0,2.1,0,3.9-0.4,5.3c-1.2,4-5,4.1-6.9,4.1c-3,0-5.5-1.1-6.5-3.8c-0.5-1.3-0.5-2.7-0.5-6.3
		v-8.4h2.6v8.4v1.1c0,3,0.2,3.6,0.4,4.1c0.9,2.5,3.1,2.5,4.3,2.5c0.9,0,1.8-0.1,2.5-0.5c1.7-1,1.7-2.9,1.8-3.8c0-0.9,0-1.5,0-3.1
		v-8.7H596.5z"/>
	<path fill="#FFFFFF" d="M616.6,167.1h-2.7v-18h9.1c0.9,0,2.2,0.1,3.3,0.7c1.7,0.9,2.5,2.5,2.5,4.4c0,0.6-0.1,1.5-0.5,2.4
		c-1.2,2.5-3.6,2.8-5.9,2.8c-0.5,0-1.3,0-2,0h-3.8V167.1z M616.6,157.2h5c1.3,0,1.9,0,2.5-0.3c1.2-0.4,1.8-1.4,1.8-2.7
		c0-1.7-1-2.4-1.7-2.6c-0.6-0.2-1.3-0.3-2.7-0.3h-5V157.2z"/>
</g>
</svg>
